<?xml version="1.0" encoding="UTF-8" standalone="no"?> <!-- Generator: Adobe Illustrator 18.1.1, SVG Export Plug-In . SVG Version: 6.00 Build 0) --> <svg xmlns:rdf="http://www.w3.org/1999/02/22-rdf-syntax-ns#" xmlns="http://www.w3.org/2000/svg" xmlns:cc="http://creativecommons.org/ns#" xmlns:xlink="http://www.w3.org/1999/xlink" xmlns:dc="http://purl.org/dc/elements/1.1/" id="Ebene_1" xml:space="preserve" viewBox="0 0 779.5 141.7" height="100%" width="100%" y="0px" x="0px"><metadata id="metadata115"></metadata><g id="g3"><defs id="defs5"><rect id="SVGID_1_" width="779.5" height="141.7"></rect></defs><clipPath id="SVGID_2_"><use id="use9" overflow="visible" xlink:href="#SVGID_1_"></use></clipPath><path id="path11" fill="#FF0000" d="M135.5,109.6h-52.7v-15.4l23.6-30.1h-22.1v-18.8h49.7v15.4l-25.1,31.8h26.6v17.1zm-61.4,0h-20.7v-6.8c0-1.6,0.2-3.9,0.7-6.8h-0.7c-1.6,4.8-3.6,8.3-5.9,10.5-3.7,3.6-8.4,5.4-14.1,5.4-3.8,0-7.3-0.9-10.4-2.6s-5.4-4-6.8-6.9c-1.7-3.5-2.6-7.7-2.7-12.6-0.1-2.8-0.1-7.2-0.1-13.1v-31.4h21.6v30.8c0,4.8,0,7.7,0.1,8.8,0.1,1,0.3,2.2,0.7,3.5,1,3.1,3.5,4.7,7.3,4.7,2,0,3.8-0.5,5.3-1.6s2.6-2.5,3.2-4.4c0.6-1.7,0.9-3.5,0.9-5.4,0-1.3,0.1-3.1,0.1-5.5v-30.9h21.6v64.3zm73.3,10.3v-93.2s-16.7,7-44.3,6.8c-14.3-0.1-32.5-6.3-61-7.2-22.6-0.7-42,4.3-42,4.3v93.1s19.4-5,42-4.3c28.5,0.9,46.8,7.1,61,7.2,27.6,0.3,44.3-6.7,44.3-6.7" clip-path="url(#SVGID_2_)"></path><path id="path13" fill="#878787" d="M779.5,90.6v-17.5c-1.9,0.5-4.3,0.9-6.3,0.9-3.7,0-5.2-1.7-5.2-6.2v-20.4h11.5v-17.1h-11.6v-23.1l-22.5,6v17.1h-7.7v17.1h7.8v24.9c0,15.7,4.8,20.1,19.8,20.1,4.7,0,9.8-0.7,14.2-1.8m-41.6,0.4v-14.7c-2.7-0.6-6.2-1.2-9.5-1.5v-44.6c-12-0.4-23,0-33.2,1.1v14.5c3.6,0.2,7.8,0.7,10.7,1.2v27.8c-3.7,0.2-7.5,0.9-10.7,1.5v14.7h42.7zm-7.3-78.2c0-7.1-6-12.8-13.5-12.8-7.4,0-13.5,5.7-13.5,12.8s6,12.8,13.5,12.8,13.5-5.7,13.5-12.8m-61.6,40.4h-13.8c0.2-5,3.2-8.4,7.5-8.4,3.9,0,6.5,2.6,6.3,8.4m21.8,4.9c0-16.8-8.6-29.4-27.7-29.4-19.9,0-30.6,13.9-30.6,32.7,0,21.5,11.7,31,32.3,31,7.5,0,16.3-1.3,23.7-4.3l-2-16.6c-6.2,2.7-12.3,3.8-18.1,3.8-8.8,0-12.8-3.4-13.2-7.7h34.8c0.6-3.3,0.8-6.4,0.8-9.5m-62.9,32.9v-22.6h-15.2c-0.4,2-0.6,3.5-0.9,5.4h-3.6c-1.6,0-3.3,0-4.8,0.1l23.6-26.9v-16.7h-49.6v21.5h15.2c0.4-2,0.6-3.5,0.9-5.4h3.3c1.2,0,4.1-0.1,4.9-0.2l-24.3,28.2v16.6h50.5zm-105.5-37.8h-13.8c0.2-5,3.2-8.4,7.5-8.4,4,0,6.6,2.6,6.3,8.4m21.9,4.9c0-16.8-8.6-29.4-27.7-29.4-19.9,0-30.6,13.9-30.6,32.7,0,21.5,11.7,31,32.3,31,7.5,0,16.3-1.3,23.7-4.3l-2-16.6c-6.2,2.7-12.3,3.8-18.1,3.8-8.8,0-12.8-3.4-13.2-7.7h34.8c0.5-3.3,0.8-6.4,0.8-9.5m-60.8-29.4c-9.4-0.2-14.9,4-18.5,10.6h-0.1c0.4-3.3,0.6-7,0.6-9.2-10.2-0.4-21.2,0-31.5,1.1v14.5c3.6,0.2,7.8,0.7,10.7,1.2v27.8c-3.7,0.2-7.5,0.9-10.7,1.5v14.8h43.9v-14.7c-3.2-0.6-7-1.2-10.7-1.5v-9.3c0-13.1,4.9-17.2,15.2-14.9l1.1-21.9zm-75.8,24.5h-13.8c0.2-5,3.2-8.4,7.5-8.4,4,0,6.6,2.6,6.3,8.4m21.9,4.9c0-16.8-8.6-29.4-27.7-29.4-19.9,0-30.6,13.9-30.6,32.7,0,21.5,11.7,31,32.3,31,7.5,0,16.3-1.3,23.7-4.3l-2-16.6c-6.2,2.7-12.3,3.8-18.1,3.8-8.8,0-12.8-3.4-13.2-7.7h34.8c0.5-3.3,0.8-6.4,0.8-9.5m-61.8,12c0-17.5-27.9-16.2-27.9-22.6,0-2.1,1.6-3.5,5.6-3.5,0.7,0,2.5,0,3.8,0.2,0.1,2,0.4,3.8,0.9,5.4h14.7v-18.7c-6.8-1.3-13.6-2.1-18.6-2.1-19.3,0-28.8,9.4-28.8,21.1,0,18.9,27.8,16.6,27.8,23.2,0,2.3-2.2,3.7-5.8,3.7-1.2,0-3.2-0.1-4.6-0.5-0.1-2-0.4-3.9-0.6-5.4h-14.8v19.4c6.3,1.3,13.7,2.1,18.5,2.1,17.9,0,29.8-9.1,29.8-22.3m-84.6,20.9h32v-14.7c-2.7-0.6-6-1.2-9.5-1.5v-26.8c0-10.4-4.6-19.2-18.1-19.2-9.4,0-15.8,4.2-19.6,9.5h-0.1c0.5-2.7,0.6-6.6,0.6-8.2-10.2-0.4-21.2,0-31.5,1.1v14.5c3.6,0.2,7.8,0.7,10.7,1.2v27.8c-3.7,0.2-7.5,0.9-10.7,1.5v14.8h41v-15c-2.5-0.5-5.3-0.9-7.8-1.1v-13.5c0-6.7,4.7-13.8,9.6-13.8,2.6,0,3.5,2,3.5,5v38.4zm-49.7-0.9v-14.7c-2.8-0.2-6.5-0.7-9.5-1.2v-44c-10.9-0.4-20.9-0.1-30.2,0.9v14.9c2.7,0.2,5.6,0.6,7.8,1v12.9c0,6.7-4.7,13.8-9.6,13.8-2.6,0-3.5-2-3.5-5v-38.5c-12-0.4-23,0-32,1v14.6c2.8,0.2,6.5,0.7,9.5,1.2v26.2c0,10.4,4.6,19.2,18.1,19.2,9.4,0,15.8-4.2,19.6-9.5h0.2c-0.4,2.9-0.5,6.1-0.5,8.2,10.1,0.3,21.1,0,30.1-1" clip-path="url(#SVGID_2_)"></path></g><g id="g15" fill="#858584"><path id="path17" d="M168.7,117.8c-1.1,0-2.1-0.1-3-0.4l0.2-2.7c0.8,0.3,2,0.5,3.1,0.5,1.5,0,2.6-0.6,2.6-2,0-2.8-6.2-1.5-6.2-6.4,0-2.6,2.1-4.5,5.7-4.5,0.8,0,1.8,0.1,2.7,0.3l-0.2,2.5c-0.8-0.2-1.8-0.4-2.7-0.4-1.6,0-2.5,0.7-2.5,1.8,0,2.7,6.2,1.7,6.2,6.3,0,2.9-2.2,5-5.9,5z"></path><path id="path19" d="M184,117.8c-4.5,0-6.8-2.9-6.8-7.5,0-4.9,3.3-7.9,7.3-7.9s6.8,2.4,6.8,7.5c0,4.9-3.2,7.9-7.3,7.9zm0.3-12.8c-2,0-3.9,1.6-3.9,5,0,3.1,1.2,5.2,3.9,5.2,1.9,0,4-1.5,4-5.1-0.1-3.3-1.5-5.1-4-5.1z"></path><path id="path21" d="M193.7,117.5v-2.2l5.3-8.7c0.3-0.5,0.6-0.9,1-1.4h-2.7-3.4v-2.6h9.6v2.3l-5.7,8.9c-0.2,0.4-0.4,0.7-0.7,1h3.2,3.2v2.6h-9.8z"></path><path id="path23" d="M207.2,117.5v-14.9h2.9v14.9h-2.9z"></path><path id="path25" d="M223.3,117.5l-1-3h-5.6l-1,3h-2.9l5.2-14.9h3.2l5.3,14.9h-3.2zm-3.1-9.2c-0.3-0.8-0.5-1.5-0.7-2.4-0.2,0.8-0.4,1.6-0.7,2.5l-1.3,3.8h4.1l-1.4-3.9z"></path><path id="path27" d="M229.2,117.5v-14.9h2.9v12.4h4.8v2.5h-7.7z"></path><path id="path29" d="M239.8,117.5v-14.9h2.9v14.9h-2.9z"></path><path id="path31" d="M249.6,117.8c-1.1,0-2.1-0.1-3-0.4l0.2-2.7c0.8,0.3,2,0.5,3.1,0.5,1.5,0,2.6-0.6,2.6-2,0-2.8-6.2-1.5-6.2-6.4,0-2.6,2.1-4.5,5.7-4.5,0.8,0,1.8,0.1,2.7,0.3l-0.2,2.5c-0.8-0.2-1.8-0.4-2.7-0.4-1.7,0-2.5,0.7-2.5,1.8,0,2.7,6.2,1.7,6.2,6.3,0,2.9-2.3,5-5.9,5z"></path><path id="path33" d="M264.3,105.1v12.4h-2.9v-12.4h-3.9v-2.4h10.6v2.4h-3.8z"></path><path id="path35" d="M271,117.5v-14.9h2.9v14.9h-2.9z"></path><path id="path37" d="M280.8,117.8c-1.1,0-2.1-0.1-3-0.4l0.2-2.7c0.8,0.3,2,0.5,3.1,0.5,1.5,0,2.6-0.6,2.6-2,0-2.8-6.2-1.5-6.2-6.4,0-2.6,2.1-4.5,5.7-4.5,0.8,0,1.8,0.1,2.7,0.3l-0.2,2.5c-0.8-0.2-1.8-0.4-2.7-0.4-1.6,0-2.5,0.7-2.5,1.8,0,2.7,6.2,1.7,6.2,6.3,0,2.9-2.2,5-5.9,5z"></path><path id="path39" d="M296.3,117.7c-5.2,0-6.9-3.5-6.9-7.2,0-4.7,2.5-8,7.4-8,1.1,0,2.2,0.1,3.1,0.4l-0.3,2.6c-1-0.3-2-0.4-3-0.4-2.8,0-4.1,2.1-4.1,5,0,3.2,1.3,5,4.3,5,0.9,0,2.1-0.3,2.9-0.6l0.3,2.6c-0.9,0.4-2.3,0.6-3.7,0.6z"></path><path id="path41" d="M312.7,117.5v-6.4h-6.3v6.4h-2.9v-14.9h2.9v5.9h6.3v-5.9h2.9v14.9h-2.9z"></path><path id="path43" d="M319.8,117.5v-14.9h8.1v2.4h-5.2v3.7h5v2.3h-5v4h5.2v2.4h-8.1z"></path></g><g id="g47" fill="#858584"><path id="path49" d="M360.8,117.5h-3.5l-2.2-8.2c-0.3-0.9-0.4-2-0.6-3.1-0.1,1-0.3,2-0.5,3l-2.2,8.3h-3.3l-3.8-14.9h3.1l2,8.2c0.2,1,0.4,2,0.6,3,0.2-1,0.3-2,0.6-2.9l2.3-8.3h3l2.3,8.3c0.2,0.8,0.5,1.8,0.6,2.9,0.2-1,0.3-2,0.6-2.8l2-8.3h2.9l-3.9,14.8z"></path><path id="path51" d="M373.4,117.8c-4.5,0-6.8-2.9-6.8-7.5,0-4.9,3.3-7.9,7.3-7.9s6.8,2.4,6.8,7.5c-0.1,4.9-3.3,7.9-7.3,7.9zm0.2-12.8c-2,0-3.9,1.6-3.9,5,0,3.1,1.2,5.2,3.9,5.2,1.9,0,4-1.5,4-5.1,0-3.3-1.4-5.1-4-5.1z"></path><path id="path53" d="M390.3,117.7c-5.2,0-6.9-3.5-6.9-7.2,0-4.7,2.5-8,7.4-8,1.1,0,2.2,0.1,3.1,0.4l-0.3,2.6c-1-0.3-2-0.4-3-0.4-2.8,0-4.1,2.1-4.1,5,0,3.2,1.3,5,4.3,5,0.9,0,2.1-0.3,2.9-0.6l0.3,2.6c-1,0.4-2.4,0.6-3.7,0.6z"></path><path id="path55" d="M406.7,117.5v-6.4h-6.3v6.4h-2.9v-14.9h2.9v5.9h6.3v-5.9h2.9v14.9h-2.9z"></path><path id="path57" d="M413.8,117.5v-14.9h8.1v2.4h-5.2v3.7h5v2.3h-5v4h5.2v2.4h-8.1z"></path><path id="path59" d="M434.3,117.5l-4.3-7.5c-0.7-1.1-1.2-2.2-1.6-3.2,0.1,1.3,0.1,3.6,0.1,5.4v5.3h-2.8v-14.9h3.7l4.1,7.1c0.7,1.1,1.3,2.4,1.8,3.5-0.1-1.5-0.2-4.1-0.2-6v-4.6h2.8v14.9h-3.6z"></path><path id="path61" d="M441.6,117.5v-2.2l5.3-8.7c0.3-0.5,0.6-0.9,1-1.4h-2.7-3.4v-2.6h9.6v2.3l-5.7,8.9c-0.2,0.4-0.4,0.7-0.7,1h3.2,3.2v2.6h-9.8z"></path><path id="path63" d="M455,117.5v-14.9h8.1v2.4h-5.2v3.7h5v2.3h-5v4h5.2v2.4h-8.1z"></path><path id="path65" d="M467,117.5v-14.9h2.9v14.9h-2.9z"></path><path id="path67" d="M479.4,105.1v12.4h-2.9v-12.4h-3.9v-2.4h10.6v2.4h-3.8z"></path><path id="path69" d="M491.9,117.8c-4.7,0-5.7-2.6-5.7-5.4v-9.7h2.9v9.5c0,1.9,0.6,3.2,3.1,3.2,2.2,0,3.1-0.9,3.1-3.5v-9.3h2.8v9.1c0,4.1-2.2,6.1-6.2,6.1z"></path><path id="path71" d="M510.9,117.5l-4.4-7.5c-0.7-1.1-1.2-2.2-1.6-3.2,0.1,1.3,0.1,3.6,0.1,5.4v5.3h-2.8v-14.9h3.7l4.1,7.1c0.7,1.1,1.3,2.4,1.8,3.5-0.1-1.5-0.2-4.1-0.2-6v-4.6h2.8v14.9h-3.5z"></path><path id="path73" d="M530.2,105.7c-1.2-0.5-2.6-0.7-3.9-0.7-2.9,0-5,1.8-5,5.2,0,3.1,1.7,5,4.7,5,0.7,0,1.3-0.1,1.9-0.3v-5.2h2.9v7.1c-1.5,0.6-3.3,0.9-5.1,0.9-4.7,0-7.5-2.8-7.5-7.3,0-4.7,3.2-8,8.3-8,1.5,0,2.9,0.3,4.2,0.6l-0.5,2.7z"></path><path id="path75" d="M554.4,112.4v-2.5h11v2.5h-11z"></path><path id="path77" d="M588.5,117.5v-2.2l5.3-8.7c0.3-0.5,0.6-0.9,1-1.4h-2.7-3.4v-2.6h9.6v2.3l-5.7,8.9c-0.2,0.4-0.4,0.7-0.7,1h3.2,3.2v2.6h-9.8z"></path><path id="path79" d="M602,117.5v-14.9h8.1v2.4h-5.2v3.7h5v2.3h-5v4h5.2v2.4h-8.1z"></path><path id="path81" d="M614,117.5v-14.9h2.9v14.9h-2.9z"></path><path id="path83" d="M626.4,105.1v12.4h-2.9v-12.4h-3.9v-2.4h10.6v2.4h-3.8z"></path><path id="path85" d="M638.9,117.8c-4.7,0-5.7-2.6-5.7-5.4v-9.7h2.9v9.5c0,1.9,0.6,3.2,3.1,3.2,2.2,0,3.1-0.9,3.1-3.5v-9.3h2.8v9.1c0,4.1-2.3,6.1-6.2,6.1z"></path><path id="path87" d="M657.9,117.5l-4.4-7.5c-0.7-1.1-1.2-2.2-1.6-3.2,0.1,1.3,0.1,3.6,0.1,5.4v5.3h-2.8v-14.9h3.7l4.1,7.1c0.7,1.1,1.3,2.4,1.8,3.5-0.1-1.5-0.2-4.1-0.2-6v-4.6h2.8v14.9h-3.5z"></path><path id="path89" d="M677.2,105.7c-1.2-0.5-2.6-0.7-3.9-0.7-2.9,0-5,1.8-5,5.2,0,3.1,1.7,5,4.7,5,0.7,0,1.3-0.1,1.9-0.3v-5.2h2.9v7.1c-1.5,0.6-3.3,0.9-5.1,0.9-4.7,0-7.5-2.8-7.5-7.3,0-4.7,3.2-8,8.3-8,1.5,0,2.9,0.3,4.2,0.6l-0.5,2.7z"></path></g><g id="g93" fill="#858584"><path id="path95" d="M693.2,117.6c-1.5,0-2.9-0.1-4.1-0.1v-14.8c1.2,0,3-0.1,4.8-0.1,4.6,0,7.5,2,7.5,7.3-0.1,5-3.4,7.7-8.2,7.7zm0.4-12.6c-0.7,0-1.3,0-1.7,0.1v10c0.4,0.1,1,0.1,1.6,0.1,2.8,0,4.8-1.6,4.8-5.1,0-3.2-1.3-5.1-4.7-5.1z"></path><path id="path97" d="M704.9,117.5v-14.9h8.1v2.4h-5.2v3.7h5v2.3h-5v4h5.2v2.4h-8.1z"></path><path id="path99" d="M724,117.5l-4.1-6.1h-0.1v6.1h-2.9v-14.9c1.2-0.1,2.6-0.1,4.3-0.1,3.3,0,5.4,1.1,5.4,4.2,0,2.2-1.5,3.8-3.8,4.1,0.4,0.5,0.8,1.1,1.2,1.6l3.6,5h-3.6zm-3.2-12.6c-0.4,0-0.8,0-1.1,0.1v4.3h1c1.7,0,2.8-0.9,2.8-2.3s-0.9-2.1-2.7-2.1z"></path></g><g id="g103" fill="#858584"><path id="path105" d="M741.6,117.6c-1.5,0-2.9-0.1-4.1-0.1v-14.8c1.2,0,3-0.1,4.8-0.1,4.6,0,7.5,2,7.5,7.3,0,5-3.3,7.7-8.2,7.7zm0.5-12.6c-0.7,0-1.3,0-1.7,0.1v10c0.4,0.1,1,0.1,1.6,0.1,2.8,0,4.8-1.6,4.8-5.1-0.1-3.2-1.3-5.1-4.7-5.1z"></path><path id="path107" d="M761,117.5l-4.8-7.1v7.1h-2.9v-14.9h2.9v6.7l4.8-6.7h3.5l-5.4,7.2,5.7,7.7h-3.8z"></path><path id="path109" d="M771.4,112.3h-1v5.2h-2.9v-14.9c1.2-0.1,2.5-0.1,4-0.1,3.7,0,5.7,1.7,5.7,4.6,0,3-2.2,5.2-5.8,5.2zm0.1-7.4h-1v5c0.3,0,0.6,0.1,0.8,0.1,1.8,0,3-1,3-2.6-0.1-1.5-0.9-2.5-2.8-2.5z"></path></g></svg> 